<svg width="195" height="190" viewBox="0 0 195 190" fill="none" xmlns="http://www.w3.org/2000/svg">
<g opacity="0.7" clip-path="url(#clip0_3_983)">
<path d="M123.794 42.7304H71.2499C70.0525 42.7319 68.9046 43.2073 68.0579 44.0524C67.2112 44.8976 66.7349 46.0434 66.7334 47.2387V163.807L66.1312 163.99L53.2414 167.931C52.6305 168.117 51.9706 168.053 51.4067 167.754C50.8428 167.455 50.4208 166.944 50.2335 166.335L11.892 41.3208C11.7054 40.711 11.769 40.0522 12.0688 39.4892C12.3686 38.9262 12.8801 38.5051 13.4908 38.3183L33.3541 32.2472L90.9385 14.653L110.802 8.58188C111.104 8.48901 111.422 8.45656 111.736 8.48638C112.051 8.5162 112.357 8.60771 112.637 8.75567C112.916 8.90362 113.163 9.10512 113.365 9.34863C113.566 9.59214 113.717 9.87289 113.81 10.1748L123.61 42.1293L123.794 42.7304Z" fill="#F2F2F2"/>
<path d="M135.26 42.1295L123.448 3.61701C123.251 2.97532 122.93 2.37857 122.503 1.86087C122.075 1.34316 121.549 0.914647 120.956 0.599808C120.362 0.284969 119.712 0.0899734 119.043 0.0259716C118.374 -0.0380302 117.698 0.0302159 117.056 0.226803L89.1292 8.75943L31.5479 26.3566L3.62131 34.8923C2.32398 35.2899 1.23772 36.1851 0.600947 37.3814C-0.0358272 38.5777 -0.171087 39.9772 0.224863 41.273L40.5957 172.893C40.9173 173.939 41.5664 174.854 42.4475 175.505C43.3286 176.156 44.3955 176.507 45.4916 176.509C45.9989 176.509 46.5033 176.433 46.9879 176.283L66.1316 170.434L66.7338 170.248V169.62L66.1316 169.803L46.8103 175.709C45.6652 176.058 44.4284 175.938 43.3712 175.378C42.3139 174.817 41.5226 173.861 41.1708 172.719L0.803089 41.0956C0.628782 40.5297 0.568031 39.9349 0.624313 39.3455C0.680596 38.7561 0.852801 38.1835 1.13108 37.6606C1.40936 37.1377 1.78824 36.6748 2.24603 36.2982C2.70381 35.9217 3.2315 35.639 3.7989 35.4663L31.7255 26.9307L89.3069 9.33648L117.233 0.80086C117.664 0.66976 118.111 0.602914 118.561 0.602496C119.527 0.60466 120.466 0.915416 121.242 1.48925C122.018 2.06308 122.59 2.86983 122.873 3.79133L134.631 42.1295L134.817 42.7306H135.444L135.26 42.1295Z" fill="#3F3D56"/>
<path d="M36.9387 38.4166C36.3584 38.4162 35.7935 38.2301 35.3268 37.8857C34.8602 37.5414 34.5164 37.0568 34.3459 36.5031L30.4677 23.8584C30.3634 23.5187 30.3273 23.1619 30.3612 22.8083C30.3952 22.4547 30.4986 22.1112 30.6656 21.7975C30.8325 21.4838 31.0598 21.206 31.3343 20.9799C31.6088 20.7539 31.9253 20.5841 32.2656 20.4801L85.2399 4.29135C85.9271 4.08203 86.6694 4.15342 87.304 4.48986C87.9385 4.82629 88.4134 5.40028 88.6244 6.08585L92.5026 18.7307C92.7122 19.4166 92.6406 20.1576 92.3036 20.7909C91.9666 21.4243 91.3916 21.8983 90.7049 22.1091L37.7304 38.2978C37.4739 38.3764 37.207 38.4165 36.9387 38.4166Z" fill="#FF9500"/>
<path d="M57.2543 13.5111C60.5801 13.5111 63.2762 10.8199 63.2762 7.50014C63.2762 4.18035 60.5801 1.48914 57.2543 1.48914C53.9285 1.48914 51.2324 4.18035 51.2324 7.50014C51.2324 10.8199 53.9285 13.5111 57.2543 13.5111Z" fill="#FF9500"/>
<path d="M57.2542 11.3065C59.3602 11.3065 61.0674 9.60233 61.0674 7.50014C61.0674 5.39795 59.3602 3.69379 57.2542 3.69379C55.1482 3.69379 53.4409 5.39795 53.4409 7.50014C53.4409 9.60233 55.1482 11.3065 57.2542 11.3065Z" fill="white"/>
<path d="M181.451 174.972H79.6806C79.0021 174.972 78.3516 174.702 77.8718 174.223C77.392 173.744 77.1221 173.095 77.1213 172.418V50.695C77.1221 50.0177 77.392 49.3683 77.8718 48.8894C78.3516 48.4104 79.0021 48.141 79.6806 48.1403H181.451C182.129 48.1411 182.78 48.4105 183.26 48.8894C183.739 49.3683 184.009 50.0177 184.01 50.695V172.418C184.009 173.095 183.739 173.744 183.26 174.223C182.78 174.702 182.129 174.972 181.451 174.972Z" fill="#E6E6E6"/>
<path d="M134.63 42.1293H71.25C69.893 42.1312 68.5922 42.6701 67.6327 43.6279C66.6732 44.5857 66.1333 45.8841 66.1313 47.2386V169.803L66.7335 169.62V47.2386C66.735 46.0434 67.2113 44.8976 68.058 44.0524C68.9047 43.2073 70.0526 42.7318 71.25 42.7304H134.817L134.63 42.1293ZM189.881 42.1293H71.25C69.893 42.1312 68.5922 42.6701 67.6327 43.6279C66.6732 44.5857 66.1333 45.8841 66.1313 47.2386V184.891C66.1333 186.245 66.6732 187.544 67.6327 188.501C68.5922 189.459 69.893 189.998 71.25 190H189.881C191.238 189.998 192.539 189.459 193.499 188.501C194.458 187.544 194.998 186.245 195 184.891V47.2386C194.998 45.8841 194.458 44.5857 193.499 43.6279C192.539 42.6701 191.238 42.1312 189.881 42.1293ZM194.398 184.891C194.396 186.086 193.92 187.232 193.073 188.077C192.227 188.922 191.079 189.397 189.881 189.399H71.25C70.0526 189.397 68.9047 188.922 68.058 188.077C67.2113 187.232 66.735 186.086 66.7335 184.891V47.2386C66.735 46.0434 67.2113 44.8976 68.058 44.0524C68.9047 43.2073 70.0526 42.7318 71.25 42.7304H189.881C191.079 42.7318 192.227 43.2073 193.073 44.0524C193.92 44.8976 194.396 46.0434 194.398 47.2386V184.891Z" fill="#3F3D56"/>
<path d="M158.267 55.3535H102.865C102.147 55.3527 101.458 55.0674 100.95 54.5603C100.442 54.0532 100.156 53.3657 100.155 52.6485V39.4243C100.156 38.7072 100.442 38.0196 100.95 37.5125C101.458 37.0054 102.147 36.7202 102.865 36.7194H158.267C158.985 36.7202 159.674 37.0054 160.182 37.5125C160.69 38.0196 160.976 38.7072 160.976 39.4243V52.6485C160.976 53.3657 160.69 54.0532 160.182 54.5603C159.674 55.0674 158.985 55.3527 158.267 55.3535Z" fill="#FF9500"/>
<path d="M130.566 37.621C133.891 37.621 136.587 34.9298 136.587 31.61C136.587 28.2902 133.891 25.599 130.566 25.599C127.24 25.599 124.544 28.2902 124.544 31.61C124.544 34.9298 127.24 37.621 130.566 37.621Z" fill="#FF9500"/>
<path d="M130.566 35.2713C132.591 35.2713 134.234 33.6321 134.234 31.61C134.234 29.5879 132.591 27.9487 130.566 27.9487C128.54 27.9487 126.898 29.5879 126.898 31.61C126.898 33.6321 128.54 35.2713 130.566 35.2713Z" fill="white"/>
</g>
<defs>
<clipPath id="clip0_3_983">
<rect width="195" height="190" fill="white"/>
</clipPath>
</defs>
</svg>
