<svg width="352" height="140" viewBox="0 0 352 140" fill="none" xmlns="http://www.w3.org/2000/svg">
<path fill-rule="evenodd" clip-rule="evenodd" d="M10 0C4.47715 0 0 4.47716 0 10V130C0 135.523 4.47714 140 9.99999 140H342C347.523 140 352 135.523 352 130V91.2615V41.2615V10C352 4.47715 347.523 0 342 0H10ZM352 41.2615C352 29.8497 352 33.4771 352 41.2615C352 41.2615 352 41.2615 352 41.2615ZM352 41.2615C352 47.1199 352 55.3326 352 61.2616C352 74.4493 352 84.2672 352 91.2615C338.193 91.2614 327 80.0686 327 66.2616C327 52.4545 338.193 41.2617 352 41.2615ZM352 91.2615C352 91.2615 352 91.2615 352 91.2615C352 112.907 352 107.511 352 91.2615Z" fill="white"/>
</svg>
