<svg width="321" height="230" viewBox="0 0 321 230" fill="none" xmlns="http://www.w3.org/2000/svg">
<path d="M299.475 42.3859H230.227C229.93 42.3863 229.636 42.3282 229.362 42.2149C229.088 42.1015 228.838 41.9352 228.628 41.7255C228.418 41.5157 228.252 41.2667 228.138 40.9925C228.024 40.7183 227.966 40.4244 227.966 40.1275C227.966 39.8307 228.024 39.5368 228.138 39.2626C228.252 38.9884 228.418 38.7393 228.628 38.5296C228.838 38.3198 229.088 38.1535 229.362 38.0402C229.636 37.9269 229.93 37.8688 230.227 37.8691H299.475C299.772 37.8688 300.066 37.9269 300.34 38.0402C300.614 38.1535 300.864 38.3198 301.074 38.5296C301.284 38.7393 301.45 38.9884 301.564 39.2626C301.678 39.5368 301.736 39.8307 301.736 40.1275C301.736 40.4244 301.678 40.7183 301.564 40.9925C301.45 41.2667 301.284 41.5157 301.074 41.7255C300.864 41.9352 300.614 42.1015 300.34 42.2149C300.066 42.3282 299.772 42.3863 299.475 42.3859Z" fill="#FF9500"/>
<path d="M299.475 51.31H230.227C229.629 51.3092 229.055 51.0709 228.632 50.6475C228.209 50.224 227.972 49.65 227.972 49.0515C227.972 48.453 228.209 47.879 228.632 47.4555C229.055 47.032 229.629 46.7937 230.227 46.793H299.475C300.073 46.7937 300.647 47.032 301.07 47.4555C301.493 47.879 301.73 48.453 301.73 49.0515C301.73 49.65 301.493 50.224 301.07 50.6475C300.647 51.0709 300.073 51.3092 299.475 51.31Z" fill="#FF9500"/>
<path d="M260.244 60.2338H230.227C229.629 60.233 229.055 59.9947 228.632 59.5713C228.209 59.1478 227.972 58.5738 227.972 57.9753C227.972 57.3768 228.209 56.8028 228.632 56.3793C229.055 55.9559 229.629 55.7176 230.227 55.7168H260.244C260.541 55.7164 260.835 55.7745 261.11 55.8879C261.384 56.0012 261.633 56.1675 261.843 56.3773C262.053 56.587 262.22 56.8361 262.334 57.1103C262.447 57.3845 262.506 57.6785 262.506 57.9753C262.506 58.2721 262.447 58.5661 262.334 58.8403C262.22 59.1145 262.053 59.3636 261.843 59.5733C261.633 59.7831 261.384 59.9494 261.11 60.0627C260.835 60.1761 260.541 60.2342 260.244 60.2338Z" fill="#FF9500"/>
<path d="M299.776 97.4953H230.528C230.232 97.4953 229.938 97.4369 229.664 97.3234C229.39 97.2099 229.141 97.0435 228.931 96.8338C228.722 96.6241 228.555 96.3752 228.442 96.1012C228.328 95.8272 228.27 95.5335 228.27 95.2369C228.27 94.9403 228.328 94.6467 228.442 94.3727C228.555 94.0987 228.722 93.8497 228.931 93.64C229.141 93.4303 229.39 93.2639 229.664 93.1504C229.938 93.0369 230.232 92.9785 230.528 92.9785H299.776C300.073 92.9785 300.366 93.0369 300.64 93.1504C300.914 93.2639 301.163 93.4303 301.373 93.64C301.583 93.8497 301.749 94.0987 301.863 94.3727C301.976 94.6467 302.034 94.9403 302.034 95.2369C302.034 95.5335 301.976 95.8272 301.863 96.1012C301.749 96.3752 301.583 96.6241 301.373 96.8338C301.163 97.0435 300.914 97.2099 300.64 97.3234C300.366 97.4369 300.073 97.4953 299.776 97.4953Z" fill="#E6E6E6"/>
<path d="M299.776 106.419H230.529C229.93 106.419 229.356 106.18 228.933 105.757C228.51 105.333 228.273 104.759 228.273 104.161C228.273 103.562 228.51 102.988 228.933 102.565C229.356 102.141 229.93 101.903 230.529 101.902H299.776C300.375 101.903 300.948 102.141 301.371 102.565C301.794 102.988 302.032 103.562 302.032 104.161C302.032 104.759 301.794 105.333 301.371 105.757C300.948 106.18 300.375 106.419 299.776 106.419Z" fill="#E6E6E6"/>
<path d="M260.546 115.343H230.529C229.93 115.343 229.355 115.105 228.932 114.682C228.508 114.258 228.27 113.684 228.27 113.085C228.27 112.486 228.508 111.911 228.932 111.488C229.355 111.064 229.93 110.826 230.529 110.826H260.546C260.843 110.826 261.137 110.884 261.411 110.997C261.685 111.111 261.935 111.277 262.145 111.487C262.355 111.696 262.521 111.946 262.635 112.22C262.749 112.494 262.807 112.788 262.807 113.085C262.807 113.382 262.749 113.675 262.635 113.95C262.521 114.224 262.355 114.473 262.145 114.683C261.935 114.892 261.685 115.059 261.411 115.172C261.137 115.285 260.843 115.344 260.546 115.343Z" fill="#E6E6E6"/>
<path d="M199.671 85.3301H163.844C162.826 85.3311 161.851 85.7355 161.131 86.4547C160.412 87.1738 160.007 88.149 160.005 89.1664V110.435C160.007 111.452 160.412 112.428 161.131 113.147C161.851 113.867 162.826 114.272 163.844 114.273H186.69C191.149 114.269 195.424 112.495 198.577 109.342C201.73 106.189 203.503 101.914 203.508 97.4551V89.1664C203.506 88.1492 203.102 87.1741 202.383 86.4549C201.664 85.7357 200.688 85.3311 199.671 85.3301Z" fill="white"/>
<path d="M202.601 66.9389H160.913C159.796 66.9376 158.724 66.4933 157.934 65.7032C157.144 64.9132 156.7 63.8421 156.699 62.7248V35.3762C156.7 34.2589 157.144 33.1878 157.934 32.3978C158.724 31.6078 159.796 31.1634 160.913 31.1621H202.601C203.719 31.1634 204.79 31.6078 205.58 32.3978C206.37 33.1878 206.814 34.2589 206.815 35.3762V62.7248C206.814 63.8421 206.37 64.9132 205.58 65.7032C204.79 66.4933 203.719 66.9376 202.601 66.9389Z" fill="#CCCCCC"/>
<path d="M199.671 34.5801H163.844C162.826 34.5813 161.851 34.9858 161.132 35.7049C160.412 36.4241 160.007 37.3991 160.005 38.4164V59.6848C160.007 60.7024 160.412 61.6778 161.131 62.3973C161.851 63.1168 162.826 63.5216 163.844 63.523H186.69C191.149 63.5194 195.425 61.7464 198.578 58.5932C201.731 55.44 203.504 51.1644 203.508 46.7051V38.4164C203.506 37.3992 203.102 36.4241 202.383 35.7049C201.664 34.9857 200.688 34.5811 199.671 34.5801Z" fill="white"/>
<path d="M173.146 38.7062C174.833 38.7062 176.201 37.3383 176.201 35.651C176.201 33.9636 174.833 32.5957 173.146 32.5957C171.459 32.5957 170.091 33.9636 170.091 35.651C170.091 37.3383 171.459 38.7062 173.146 38.7062Z" fill="#2F2E41"/>
<path d="M178.034 50.316C182.309 50.316 185.774 46.8506 185.774 42.5759C185.774 38.3013 182.309 34.8359 178.034 34.8359C173.76 34.8359 170.294 38.3013 170.294 42.5759C170.294 46.8506 173.76 50.316 178.034 50.316Z" fill="#2F2E41"/>
<path d="M178.675 50.3136C182.149 50.3136 184.965 47.4977 184.965 44.024C184.965 40.5503 182.149 37.7344 178.675 37.7344C175.201 37.7344 172.385 40.5503 172.385 44.024C172.385 47.4977 175.201 50.3136 178.675 50.3136Z" fill="#9E616A"/>
<path d="M182.946 37.6116C181.844 36.9397 180.582 36.5762 179.291 36.5592C178.001 36.5422 176.729 36.8723 175.61 37.5149C174.49 38.1575 173.564 39.0891 172.928 40.2122C172.291 41.3353 171.969 42.6087 171.993 43.8993C175.198 44.7039 178.565 45.3197 181.983 44.0918L182.79 42.1164L183.266 44.0932C184.306 44.5186 185.35 44.8786 186.393 44.0891C186.436 42.8022 186.14 41.5266 185.535 40.3899C184.93 39.2532 184.038 38.2952 182.946 37.6116Z" fill="#2F2E41"/>
<path d="M170.302 27.3571C169.229 26.8993 168.05 26.7508 166.897 26.9283C165.744 27.1059 164.664 27.6025 163.779 28.362C162.914 29.1431 162.254 30.1262 161.861 31.2237C161.467 32.3213 161.351 33.4991 161.523 34.6524C161.87 36.998 163.296 39.0178 164.61 40.9912C165.925 42.9645 167.209 45.1269 167.207 47.4979C167.206 49.2056 166.528 50.8433 165.321 52.0517C164.114 53.26 162.478 53.9406 160.77 53.9439C162.774 54.8068 164.866 55.6866 167.046 55.5843C169.226 55.482 171.511 54.0807 171.866 51.9277C172.122 50.3764 171.361 48.8637 170.726 47.4252C169.692 45.0812 168.945 42.621 168.501 40.098C168.289 38.8938 168.151 37.6279 168.543 36.4699C168.856 35.6118 169.436 34.8769 170.198 34.3736C170.96 33.8702 171.863 33.625 172.775 33.6742L173.496 33.0262C173.619 31.8665 173.378 30.6971 172.805 29.681C172.233 28.6649 171.358 27.8526 170.302 27.3571Z" fill="#2F2E41"/>
<path d="M195.312 61.1376C192.708 62.7021 189.727 63.5265 186.689 63.5222H165.129L165.095 63.4936L166.951 58.3124C167.37 57.3927 168.032 56.6046 168.866 56.0326C169.699 55.4606 170.673 55.1263 171.682 55.0656L172.863 54.9931L175.678 52.5646C175.678 52.5646 183.265 52.2918 183.153 52.1621L187.748 54.9263L187.744 54.9091L189.551 55.0198C190.56 55.0799 191.534 55.4139 192.367 55.986C193.201 56.5581 193.863 57.3465 194.282 58.2666L195.312 61.1376Z" fill="#FF9500"/>
<path d="M202.903 122.048H161.214C160.097 122.047 159.026 121.603 158.236 120.813C157.446 120.023 157.001 118.951 157 117.834V90.4856C157.001 89.3683 157.446 88.2972 158.236 87.5072C159.026 86.7171 160.097 86.2728 161.214 86.2715H202.903C204.02 86.2727 205.091 86.7171 205.881 87.5072C206.671 88.2972 207.115 89.3683 207.117 90.4856V117.834C207.115 118.951 206.671 120.023 205.881 120.813C205.091 121.603 204.02 122.047 202.903 122.048Z" fill="#E6E6E6"/>
<path d="M199.973 89.6895H164.145C163.128 89.6904 162.152 90.0949 161.433 90.8141C160.713 91.5332 160.308 92.5084 160.307 93.5257V114.794C160.308 115.812 160.713 116.787 161.432 117.507C162.152 118.226 163.127 118.631 164.145 118.632H186.991C191.45 118.628 195.725 116.855 198.878 113.702C202.031 110.549 203.804 106.274 203.809 101.814V93.5257C203.808 92.5086 203.403 91.5335 202.684 90.8142C201.965 90.095 200.99 89.6905 199.973 89.6895Z" fill="white"/>
<path d="M181.63 103.259C186.395 103.259 190.259 99.3955 190.259 94.6295C190.259 89.8636 186.395 86 181.63 86C176.864 86 173 89.8636 173 94.6295C173 99.3955 176.864 103.259 181.63 103.259Z" fill="#2F2E41"/>
<path d="M182.03 104.354C186.288 104.354 189.74 100.902 189.74 96.6447C189.74 92.387 186.288 88.9355 182.03 88.9355C177.773 88.9355 174.321 92.387 174.321 96.6447C174.321 100.902 177.773 104.354 182.03 104.354Z" fill="#FFB8B8"/>
<path d="M197.451 114.976C194.48 117.347 190.792 118.636 186.991 118.633H167.766L169.589 113.545C170.009 112.625 170.671 111.837 171.504 111.264C172.338 110.692 173.311 110.357 174.32 110.296L175.501 110.224L178.317 107.795C178.317 107.795 185.904 107.524 185.791 107.395L190.387 110.159L190.383 110.14L192.189 110.25C193.199 110.311 194.172 110.646 195.006 111.218C195.839 111.79 196.501 112.579 196.92 113.499L197.451 114.976Z" fill="#FF9500"/>
<path d="M190.164 93.9401C190.218 93.3645 190.242 92.7865 190.238 92.2085C190.269 91.0652 190.06 89.9281 189.623 88.871C189.086 87.7007 188.128 86.7753 186.94 86.2787C185.762 85.8037 184.446 85.8048 183.269 86.2819C182.233 85.5693 181.033 85.1324 179.782 85.0125C179.156 84.9622 178.526 85.0643 177.947 85.3099C177.368 85.5555 176.857 85.9375 176.458 86.4232C176.287 86.6912 176.093 86.9437 175.877 87.1777C175.262 87.7481 174.326 87.6658 173.507 87.5492C173.874 87.8639 174.241 88.1786 174.609 88.4932C174.164 88.6094 173.72 88.7255 173.275 88.8416C173.794 89.1562 174.313 89.4708 174.831 89.7854C173.325 90.6892 172.641 92.6618 172.822 94.4534C172.993 96.1496 173.812 97.7007 174.791 99.0794C175.181 98.2553 175.097 97.2692 175.091 96.341C175.087 96.04 175.105 95.7391 175.146 95.4407C178.454 96.2337 181.911 96.7427 185.417 95.4832L186.12 93.7613C186.219 93.7715 186.318 93.781 186.416 93.7915L186.824 95.4848C187.748 95.8625 188.674 96.1926 189.6 95.8457C189.645 96.1072 189.672 96.3741 189.693 96.6307C189.773 96.3238 189.842 96.0147 189.904 95.7043C190.026 95.6386 190.144 95.5637 190.255 95.4803C190.277 94.9651 190.247 94.449 190.164 93.9401Z" fill="#2F2E41"/>
<path d="M144.15 5.10982C144.94 5.10982 145.58 4.46963 145.58 3.67991C145.58 2.89019 144.94 2.25 144.15 2.25C143.36 2.25 142.72 2.89019 142.72 3.67991C142.72 4.46963 143.36 5.10982 144.15 5.10982Z" fill="white"/>
<path d="M149.577 5.10982C150.367 5.10982 151.007 4.46963 151.007 3.67991C151.007 2.89019 150.367 2.25 149.577 2.25C148.788 2.25 148.147 2.89019 148.147 3.67991C148.147 4.46963 148.788 5.10982 149.577 5.10982Z" fill="white"/>
<path d="M155.005 5.10982C155.795 5.10982 156.435 4.46963 156.435 3.67991C156.435 2.89019 155.795 2.25 155.005 2.25C154.215 2.25 153.575 2.89019 153.575 3.67991C153.575 4.46963 154.215 5.10982 155.005 5.10982Z" fill="white"/>
<path d="M313.802 2.69545H307.552C307.429 2.69545 307.311 2.64667 307.224 2.55985C307.138 2.47303 307.089 2.35527 307.089 2.23249C307.089 2.10971 307.138 1.99195 307.224 1.90513C307.311 1.8183 307.429 1.76953 307.552 1.76953H313.802C313.925 1.76953 314.042 1.8183 314.129 1.90513C314.216 1.99195 314.265 2.10971 314.265 2.23249C314.265 2.35527 314.216 2.47303 314.129 2.55985C314.042 2.64667 313.925 2.69545 313.802 2.69545Z" fill="white"/>
<path d="M313.802 4.43177H307.552C307.491 4.43177 307.431 4.4198 307.375 4.39653C307.318 4.37326 307.267 4.33917 307.224 4.29618C307.181 4.25319 307.147 4.20215 307.124 4.14598C307.101 4.08981 307.089 4.02961 307.089 3.96881C307.089 3.90802 307.101 3.84782 307.124 3.79165C307.147 3.73548 307.181 3.68444 307.224 3.64145C307.267 3.59846 307.318 3.56437 307.375 3.5411C307.431 3.51783 307.491 3.50586 307.552 3.50586H313.802C313.863 3.50586 313.923 3.51783 313.979 3.5411C314.035 3.56437 314.086 3.59846 314.129 3.64145C314.172 3.68444 314.206 3.73548 314.229 3.79165C314.253 3.84782 314.265 3.90802 314.265 3.96881C314.265 4.02961 314.253 4.08981 314.229 4.14598C314.206 4.20215 314.172 4.25319 314.129 4.29618C314.086 4.33917 314.035 4.37326 313.979 4.39653C313.923 4.4198 313.863 4.43177 313.802 4.43177Z" fill="white"/>
<path d="M313.802 6.16811H307.552C307.429 6.16811 307.311 6.11933 307.224 6.03251C307.138 5.94569 307.089 5.82793 307.089 5.70515C307.089 5.58236 307.138 5.46461 307.224 5.37779C307.311 5.29097 307.429 5.24219 307.552 5.24219H313.802C313.925 5.24219 314.042 5.29097 314.129 5.37779C314.216 5.46461 314.265 5.58236 314.265 5.70515C314.265 5.82793 314.216 5.94569 314.129 6.03251C314.042 6.11933 313.925 6.16811 313.802 6.16811Z" fill="white"/>
<path d="M282.413 60.8477C283.841 60.8477 284.999 59.6899 284.999 58.2617C284.999 56.8336 283.841 55.6758 282.413 55.6758C280.985 55.6758 279.827 56.8336 279.827 58.2617C279.827 59.6899 280.985 60.8477 282.413 60.8477Z" fill="#FF9500"/>
<path d="M290.811 60.8477C292.239 60.8477 293.397 59.6899 293.397 58.2617C293.397 56.8336 292.239 55.6758 290.811 55.6758C289.383 55.6758 288.225 56.8336 288.225 58.2617C288.225 59.6899 289.383 60.8477 290.811 60.8477Z" fill="#FF9500"/>
<path d="M299.209 60.8477C300.637 60.8477 301.794 59.6899 301.794 58.2617C301.794 56.8336 300.637 55.6758 299.209 55.6758C297.78 55.6758 296.623 56.8336 296.623 58.2617C296.623 59.6899 297.78 60.8477 299.209 60.8477Z" fill="#FF9500"/>
<path d="M282.714 115.686C284.143 115.686 285.3 114.528 285.3 113.1C285.3 111.671 284.143 110.514 282.714 110.514C281.286 110.514 280.128 111.671 280.128 113.1C280.128 114.528 281.286 115.686 282.714 115.686Z" fill="#E6E6E6"/>
<path d="M291.112 115.686C292.541 115.686 293.698 114.528 293.698 113.1C293.698 111.671 292.541 110.514 291.112 110.514C289.684 110.514 288.526 111.671 288.526 113.1C288.526 114.528 289.684 115.686 291.112 115.686Z" fill="#E6E6E6"/>
<path d="M299.51 115.686C300.938 115.686 302.096 114.528 302.096 113.1C302.096 111.671 300.938 110.514 299.51 110.514C298.082 110.514 296.924 111.671 296.924 113.1C296.924 114.528 298.082 115.686 299.51 115.686Z" fill="#E6E6E6"/>
</svg>
