<svg width="175" height="145" viewBox="0 0 175 145" fill="none" xmlns="http://www.w3.org/2000/svg">
<path d="M9.24534 42.5689C-7.04641 29.833 4.51415 18.1584 12.3309 13.9131C41.7462 11.3659 116.498 -3.66304 138.221 2.4502C159.943 8.56345 167.431 23.2522 168.459 29.8324L158.585 136.178C153.648 138.725 105.514 147.003 93.7885 141.909C79.595 132.994 84.9021 133.885 86.3832 106.885C88.2345 73.1351 51.3708 63.9861 50.5907 63.5832C49.3565 62.9458 29.61 58.4888 9.24534 42.5689Z" fill="#FF9500" stroke="#FF9500"/>
<path d="M173.999 115.026L127.517 130.533C124.131 132.38 86.1524 138.722 77.0137 134.868C65.9511 128.124 70.0875 128.798 71.2419 108.372C72.6849 82.8395 43.9528 75.9181 43.3448 75.6133C42.3829 75.1311 26.9922 71.7593 11.1197 59.7155C-1.57823 50.0805 6.53985 40.6611 13.5247 38.0368C36.0913 31.984 92.7324 26.4095 111.645 29.3648L131.519 31.4144L146.338 33.4641L170.921 37.5633" stroke="white"/>
</svg>
