<svg width="395" height="374" viewBox="0 0 395 374" fill="none" xmlns="http://www.w3.org/2000/svg">
<g clip-path="url(#clip0_509_4456)">
<path d="M134.794 188.938C128.217 185.26 123.35 179.139 121.245 171.898C107.938 177.07 93.5781 178.944 79.3906 177.362C65.203 175.78 51.6078 170.789 39.7636 162.813C-0.752706 135.533 -11.5399 80.3485 15.7169 39.797C42.9737 -0.754448 98.1115 -11.55 138.627 15.7296C179.042 42.9417 189.876 97.9202 162.877 138.442C166.23 140.3 169.181 142.805 171.561 145.81C173.941 148.816 175.703 152.264 176.745 155.955C177.767 159.609 178.061 163.429 177.609 167.196C177.157 170.964 175.968 174.606 174.11 177.913C172.251 181.221 169.76 184.13 166.779 186.474C163.797 188.818 160.384 190.551 156.733 191.575C153.083 192.608 149.265 192.907 145.5 192.454C141.734 192.002 138.095 190.806 134.794 188.938V188.938Z" fill="white"/>
<path d="M138.016 181.591C133.417 178.709 130.083 174.189 128.684 168.942C128.413 167.971 127.94 167.068 127.298 166.291C126.656 165.514 125.858 164.88 124.956 164.431C124.053 163.982 123.067 163.727 122.061 163.683C121.054 163.639 120.049 163.807 119.111 164.176L118.672 164.349C100.734 171.404 80.8633 171.791 62.6638 165.441C44.4644 159.091 29.1412 146.423 19.4731 129.735C9.80501 113.048 6.43218 93.4447 9.96624 74.4815C13.5003 55.5183 23.7072 38.4504 38.7361 26.3732C53.7649 14.2959 72.6205 8.00893 91.8835 8.65234C111.147 9.29574 129.541 16.8269 143.732 29.8802C157.923 42.9334 166.971 60.6443 169.234 79.8012C171.497 98.9581 166.825 118.292 156.067 134.298L155.805 134.688C155.243 135.525 154.862 136.471 154.687 137.464C154.512 138.458 154.548 139.477 154.791 140.456C155.035 141.435 155.48 142.352 156.1 143.148C156.719 143.943 157.499 144.6 158.388 145.076C160.953 146.42 163.221 148.267 165.058 150.507C166.895 152.747 168.263 155.335 169.079 158.115C169.928 161.151 170.081 164.339 169.526 167.443C168.972 170.546 167.724 173.484 165.876 176.037C163.502 179.347 160.201 181.878 156.389 183.309C154.003 184.213 151.473 184.678 148.922 184.681C145.071 184.678 141.297 183.609 138.016 181.591V181.591Z" fill="#E7EEFF"/>
<path d="M134.468 189.516C133.461 188.95 132.487 188.326 131.552 187.647C121.497 180.346 109.632 176.964 98.1469 178.122C77.4431 180.195 56.6652 174.976 39.3925 163.364C-1.42723 135.88 -12.2955 80.2814 15.1655 39.4264C42.6263 -1.4283 98.1769 -12.3062 138.997 15.1787C155.905 26.5949 168.404 43.4559 174.417 62.962C180.431 82.4682 179.597 103.446 172.055 122.413C170.363 126.584 169.665 131.092 170.018 135.58C170.372 140.068 171.766 144.412 174.09 148.266C176.477 152.144 177.935 156.523 178.351 161.059C178.767 165.595 178.13 170.166 176.489 174.415C174.848 178.664 172.247 182.475 168.89 185.552C165.534 188.628 161.512 190.886 157.139 192.149C154.461 192.926 151.688 193.321 148.9 193.323C143.843 193.313 138.873 192.002 134.468 189.516ZM16.8173 40.5387C6.43427 55.9859 1.25683 74.3505 2.04083 92.9514C2.82484 111.552 9.52924 129.415 21.1752 143.932C32.8211 158.449 48.7987 168.86 66.7753 173.645C84.7519 178.43 103.786 177.338 121.099 170.529L122.124 170.125L122.421 171.188C124.392 178.228 129.076 184.196 135.444 187.78C141.811 191.363 149.34 192.268 156.374 190.296C163.408 188.323 169.372 183.635 172.952 177.262C176.532 170.889 177.437 163.354 175.466 156.314C174.456 152.736 172.738 149.398 170.412 146.499C168.086 143.599 165.201 141.199 161.929 139.439L160.958 138.92L161.572 138.004C174.477 118.792 179.23 95.2366 174.785 72.5178C170.34 49.799 157.062 29.7772 137.87 16.8552C118.678 3.93317 95.1447 -0.831019 72.444 3.61028C49.7433 8.05158 29.7344 21.3347 16.8173 40.5387Z" fill="#3F3D56"/>
<path d="M55.0564 99.6814C60.7647 99.6814 65.3922 95.05 65.3922 89.3368C65.3922 83.6236 60.7647 78.9922 55.0564 78.9922C49.3482 78.9922 44.7207 83.6236 44.7207 89.3368C44.7207 95.05 49.3482 99.6814 55.0564 99.6814Z" fill="#FF9500"/>
</g>
<defs>
<clipPath id="clip0_509_4456">
<rect width="395" height="374" fill="white"/>
</clipPath>
</defs>
</svg>
